<?xml version="1.0" standalone="no"?>
<!DOCTYPE svg PUBLIC "-//W3C//DTD SVG 20010904//EN"
 "http://www.w3.org/TR/2001/REC-SVG-20010904/DTD/svg10.dtd">
<svg version="1.0" xmlns="http://www.w3.org/2000/svg"
 width="512.000000pt" height="512.000000pt" viewBox="0 0 512.000000 512.000000"
 preserveAspectRatio="xMidYMid meet">

<g transform="translate(0.000000,512.000000) scale(0.100000,-0.100000)"
fill="#000000" stroke="none">
<path d="M1355 5113 c-201 -24 -375 -76 -544 -163 -411 -213 -701 -605 -787
-1065 -18 -94 -19 -171 -19 -1325 0 -1154 1 -1231 19 -1325 115 -617 594
-1096 1211 -1211 94 -18 171 -19 1335 -19 l1235 0 105 23 c463 102 829 377
1039 782 68 130 109 247 143 400 l23 105 0 1235 c0 1164 -1 1241 -19 1335
-107 576 -532 1036 -1093 1185 -182 49 -210 50 -1453 48 -641 0 -1178 -3
-1195 -5z m879 -1179 c3 -9 6 -35 6 -59 0 -65 35 -167 104 -300 66 -128 238
-425 246 -425 3 0 44 65 92 143 190 311 253 447 266 581 l7 71 445 0 c520 0
492 8 384 -108 -147 -158 -324 -399 -669 -912 l-204 -302 127 -204 c388 -619
614 -941 800 -1140 110 -117 140 -110 -433 -107 l-480 3 -7 67 c-9 92 -39 179
-113 322 -55 108 -231 410 -268 460 -14 19 -19 13 -90 -97 -231 -355 -327
-556 -327 -683 0 -80 39 -74 -450 -74 -370 0 -439 2 -450 14 -9 12 4 33 77
113 162 181 324 405 682 941 l220 330 -131 209 c-306 488 -572 870 -711 1020
-113 123 -112 120 -97 138 11 13 75 15 490 15 427 0 479 -2 484 -16z"/>
<path d="M1480 3876 c14 -8 111 -49 216 -91 l192 -77 103 82 c57 45 108 86
113 91 6 5 -126 9 -320 9 -282 -1 -325 -3 -304 -14z"/>
<path d="M3070 3887 c0 -2 45 -43 101 -91 l100 -88 187 83 c103 45 191 86 196
91 6 4 -124 8 -287 8 -163 0 -297 -2 -297 -3z"/>
<path d="M2066 3770 c-55 -43 -106 -86 -114 -94 -13 -13 20 -71 278 -490 162
-262 296 -474 298 -471 2 2 9 84 16 182 l12 178 -108 185 c-142 242 -234 429
-256 518 -9 40 -19 72 -22 71 -3 0 -50 -36 -104 -79z"/>
<path d="M2998 3780 c-28 -119 -110 -280 -286 -561 l-91 -144 -11 -168 c-7
-92 -10 -170 -8 -172 2 -3 143 205 311 462 295 446 307 467 290 485 -9 10 -55
52 -103 92 l-86 74 -16 -68z"/>
<path d="M1498 3732 c137 -172 314 -435 682 -1014 l75 -117 65 6 c36 3 91 8
123 12 l58 6 -311 505 c-172 278 -315 509 -320 513 -6 7 -437 187 -447 187 -2
0 32 -44 75 -98z"/>
<path d="M3483 3736 c-100 -45 -189 -88 -197 -96 -27 -28 -657 -992 -652 -998
3 -3 54 -1 113 4 l107 9 61 90 c34 50 153 225 265 390 229 337 359 520 438
613 30 35 52 65 50 66 -1 2 -85 -33 -185 -78z"/>
<path d="M2790 2584 c-8 -1 -50 -6 -93 -9 -60 -5 -77 -10 -73 -20 6 -16 664
-1067 675 -1078 7 -7 430 -187 439 -187 2 0 -21 28 -51 63 -152 175 -394 533
-767 1135 -66 106 -70 109 -130 96z"/>
<path d="M2360 2547 l-105 -9 -257 -383 c-286 -424 -417 -611 -532 -759 -43
-54 -72 -96 -64 -93 7 2 95 42 194 87 l182 82 339 516 c187 285 348 529 358
545 13 20 14 27 4 25 -8 0 -61 -5 -119 -11z"/>
<path d="M2580 2475 c0 -11 -5 -96 -11 -190 l-11 -170 126 -210 c152 -252 260
-465 283 -560 10 -38 18 -72 20 -74 2 -4 232 169 239 181 3 4 -131 225 -297
491 -365 582 -349 557 -349 532z"/>
<path d="M2369 2253 c-79 -120 -229 -349 -335 -509 l-192 -291 99 -87 c54 -47
103 -86 109 -86 5 0 10 11 10 23 0 96 128 343 380 735 l53 83 12 172 c6 94 11
173 10 175 -1 1 -67 -95 -146 -215z"/>
<path d="M1620 1335 c-91 -41 -178 -81 -195 -89 -27 -13 0 -15 268 -15 163 -1
297 2 296 7 0 8 -181 164 -195 168 -5 2 -83 -30 -174 -71z"/>
<path d="M3165 1324 c-60 -47 -112 -87 -114 -90 -2 -2 144 -4 324 -4 181 0
325 4 319 8 -11 10 -401 172 -412 172 -4 -1 -56 -39 -117 -86z"/>
</g>
</svg>
